<mxfile host="65bd71144e">
    <diagram id="qsWdjLXhYfynifRHrDlj" name="Page-1">
        <mxGraphModel dx="517" dy="1678" grid="1" gridSize="10" guides="1" tooltips="1" connect="1" arrows="1" fold="1" page="1" pageScale="1" pageWidth="1169" pageHeight="827" math="0" shadow="0">
            <root>
                <mxCell id="0"/>
                <mxCell id="1" parent="0"/>
                <mxCell id="42" value="" style="swimlane;startSize=0;fillColor=#d5e8d4;strokeColor=#82b366;sketch=1;" parent="1" vertex="1">
                    <mxGeometry x="320" y="-710" width="220" height="380" as="geometry"/>
                </mxCell>
                <mxCell id="186" value="&lt;br&gt;«schema»&lt;br&gt;&lt;b&gt;RGB LED&lt;/b&gt;" style="html=1;dropTarget=0;verticalAlign=top;fillColor=#dae8fc;strokeColor=#6c8ebf;sketch=0;" parent="42" vertex="1">
                    <mxGeometry x="20" y="120" width="180" height="240" as="geometry"/>
                </mxCell>
                <mxCell id="187" value="" style="shape=module;jettyWidth=8;jettyHeight=4;sketch=0;" parent="186" vertex="1">
                    <mxGeometry x="1" width="20" height="20" relative="1" as="geometry">
                        <mxPoint x="-27" y="7" as="offset"/>
                    </mxGeometry>
                </mxCell>
                <mxCell id="188" value="«type: u8»&lt;br&gt;&lt;b&gt;red&lt;/b&gt;" style="html=1;dropTarget=0;verticalAlign=top;sketch=0;" parent="42" vertex="1">
                    <mxGeometry x="30" y="180" width="160" height="50" as="geometry"/>
                </mxCell>
                <mxCell id="189" value="«type: u8»&lt;br&gt;&lt;b&gt;green&lt;/b&gt;" style="html=1;dropTarget=0;verticalAlign=top;sketch=0;" parent="42" vertex="1">
                    <mxGeometry x="30" y="240" width="160" height="50" as="geometry"/>
                </mxCell>
                <mxCell id="190" value="«type: u8»&lt;br&gt;&lt;b&gt;blue&lt;/b&gt;" style="html=1;dropTarget=0;verticalAlign=top;sketch=0;" parent="42" vertex="1">
                    <mxGeometry x="30" y="300" width="160" height="50" as="geometry"/>
                </mxCell>
                <mxCell id="191" value="value: u8" style="edgeStyle=elbowEdgeStyle;html=1;elbow=vertical;rounded=0;entryX=0.75;entryY=1;entryDx=0;entryDy=0;exitX=0.75;exitY=0;exitDx=0;exitDy=0;" parent="42" source="186" target="192" edge="1">
                    <mxGeometry relative="1" as="geometry">
                        <mxPoint x="-120" y="660" as="targetPoint"/>
                    </mxGeometry>
                </mxCell>
                <mxCell id="192" value="&lt;b&gt;Client&lt;/b&gt;" style="html=1;dropTarget=0;verticalAlign=middle;fillColor=#fff2cc;strokeColor=#d6b656;glass=0;rounded=0;shadow=0;sketch=0;" parent="42" vertex="1">
                    <mxGeometry x="20" y="20" width="180" height="50" as="geometry"/>
                </mxCell>
                <mxCell id="193" value="" style="shape=module;jettyWidth=8;jettyHeight=4;sketch=0;" parent="192" vertex="1">
                    <mxGeometry x="1" width="20" height="20" relative="1" as="geometry">
                        <mxPoint x="-27" y="7" as="offset"/>
                    </mxGeometry>
                </mxCell>
                <mxCell id="194" value="GET &quot;red&quot;" style="edgeStyle=elbowEdgeStyle;html=1;elbow=vertical;exitX=0.25;exitY=1;exitDx=0;exitDy=0;rounded=0;entryX=0.25;entryY=0;entryDx=0;entryDy=0;" parent="42" source="192" target="186" edge="1">
                    <mxGeometry relative="1" as="geometry">
                        <mxPoint x="-180" y="807.5" as="sourcePoint"/>
                        <mxPoint x="-30" y="807.6" as="targetPoint"/>
                    </mxGeometry>
                </mxCell>
                <mxCell id="44" value="" style="swimlane;startSize=0;fillColor=#f8cecc;strokeColor=#b85450;sketch=1;" parent="1" vertex="1">
                    <mxGeometry x="60" y="-710" width="220" height="380" as="geometry"/>
                </mxCell>
                <mxCell id="149" value="&lt;br&gt;«schema»&lt;br&gt;&lt;b&gt;RGB LED&lt;/b&gt;" style="html=1;dropTarget=0;verticalAlign=top;fillColor=#dae8fc;strokeColor=#6c8ebf;sketch=0;" parent="44" vertex="1">
                    <mxGeometry x="20" y="120" width="180" height="240" as="geometry"/>
                </mxCell>
                <mxCell id="150" value="" style="shape=module;jettyWidth=8;jettyHeight=4;sketch=0;" parent="149" vertex="1">
                    <mxGeometry x="1" width="20" height="20" relative="1" as="geometry">
                        <mxPoint x="-27" y="7" as="offset"/>
                    </mxGeometry>
                </mxCell>
                <mxCell id="151" value="«type: unknown»&lt;br&gt;&lt;b&gt;red&lt;/b&gt;" style="html=1;dropTarget=0;verticalAlign=top;sketch=0;" parent="44" vertex="1">
                    <mxGeometry x="30" y="180" width="160" height="50" as="geometry"/>
                </mxCell>
                <mxCell id="153" value="«type: unknown»&lt;br&gt;&lt;b&gt;green&lt;/b&gt;" style="html=1;dropTarget=0;verticalAlign=top;sketch=0;" parent="44" vertex="1">
                    <mxGeometry x="30" y="240" width="160" height="50" as="geometry"/>
                </mxCell>
                <mxCell id="154" value="«type: unknown»&lt;br&gt;&lt;b&gt;blue&lt;/b&gt;" style="html=1;dropTarget=0;verticalAlign=top;sketch=0;" parent="44" vertex="1">
                    <mxGeometry x="30" y="300" width="160" height="50" as="geometry"/>
                </mxCell>
                <mxCell id="171" value="opaque" style="edgeStyle=elbowEdgeStyle;html=1;elbow=vertical;rounded=0;entryX=0.75;entryY=1;entryDx=0;entryDy=0;exitX=0.75;exitY=0;exitDx=0;exitDy=0;" parent="44" source="149" target="162" edge="1">
                    <mxGeometry relative="1" as="geometry">
                        <mxPoint x="-60" y="-50" as="targetPoint"/>
                    </mxGeometry>
                </mxCell>
                <mxCell id="162" value="&lt;b&gt;Client&lt;/b&gt;" style="html=1;dropTarget=0;verticalAlign=middle;fillColor=#fff2cc;strokeColor=#d6b656;glass=0;rounded=0;shadow=0;sketch=0;" parent="44" vertex="1">
                    <mxGeometry x="20" y="20" width="180" height="50" as="geometry"/>
                </mxCell>
                <mxCell id="163" value="" style="shape=module;jettyWidth=8;jettyHeight=4;sketch=0;" parent="162" vertex="1">
                    <mxGeometry x="1" width="20" height="20" relative="1" as="geometry">
                        <mxPoint x="-27" y="7" as="offset"/>
                    </mxGeometry>
                </mxCell>
                <mxCell id="174" value="GET &quot;red&quot;" style="edgeStyle=elbowEdgeStyle;html=1;elbow=vertical;exitX=0.25;exitY=1;exitDx=0;exitDy=0;rounded=0;entryX=0.25;entryY=0;entryDx=0;entryDy=0;" parent="44" source="162" target="149" edge="1">
                    <mxGeometry relative="1" as="geometry">
                        <mxPoint x="-120" y="97.5" as="sourcePoint"/>
                        <mxPoint x="30" y="97.60000000000002" as="targetPoint"/>
                    </mxGeometry>
                </mxCell>
                <mxCell id="46" value="Not typed" style="text;html=1;align=left;verticalAlign=middle;resizable=0;points=[];autosize=1;strokeColor=none;fillColor=none;sketch=0;" parent="1" vertex="1">
                    <mxGeometry x="60" y="-730" width="70" height="20" as="geometry"/>
                </mxCell>
                <mxCell id="47" value="Typed" style="text;html=1;align=left;verticalAlign=middle;resizable=0;points=[];autosize=1;strokeColor=none;fillColor=none;sketch=0;" parent="1" vertex="1">
                    <mxGeometry x="320" y="-730" width="50" height="20" as="geometry"/>
                </mxCell>
            </root>
        </mxGraphModel>
    </diagram>
</mxfile>